<svg width="57" height="62" viewBox="0 0 57 62" fill="none" xmlns="http://www.w3.org/2000/svg">
<g id="Logo 2" clip-path="url(#clip0_15_59)">
<path id="Vector" d="M25.6484 46.9917L31.4947 52.9172M31.4947 46.9917L25.6484 52.9172" stroke="white" stroke-linecap="round"/>
<path id="Vector_2" d="M50.8125 5.77064C49.5416 5.25538 33.0196 1.1333 28.4443 1.1333C23.3606 1.1333 8.87214 5.25538 5.31354 6.2859C2.77169 7.02199 0.99238 9.37747 0.738216 11.1809C0.560076 12.4449 0.974801 16.5061 1.23074 19.0124L1.24657 19.1674L2.51748 36.171C2.68694 39.4343 3.38174 46.6308 3.78843 48.2797C4.2968 50.3407 6.83864 51.8864 7.60118 52.4017C8.36372 52.917 20.1987 58.4627 24.6315 60.3882C26.4108 61.1611 29.7152 61.3452 32.5112 60.1306C34.2905 59.3577 49.2874 52.4017 51.3209 51.1135C52.9477 50.0831 53.5239 46.9056 53.6086 45.4457L55.3879 22.7743C55.642 19.4251 56.0996 12.3144 55.8962 10.6656C55.642 8.60459 52.846 6.59506 50.8125 5.77064Z" stroke="white" stroke-width="2"/>
<path id="Vector_3" d="M28.6986 48.022C29.2601 48.022 29.7154 47.5606 29.7154 46.9915C29.7154 46.4223 29.2601 45.9609 28.6986 45.9609C28.1371 45.9609 27.6819 46.4223 27.6819 46.9915C27.6819 47.5606 28.1371 48.022 28.6986 48.022Z" fill="white"/>
<path id="Vector_4" d="M31.7487 51.1138C32.3102 51.1138 32.7654 50.6524 32.7654 50.0833C32.7654 49.5141 32.3102 49.0527 31.7487 49.0527C31.1871 49.0527 30.7319 49.5141 30.7319 50.0833C30.7319 50.6524 31.1871 51.1138 31.7487 51.1138Z" fill="white"/>
<path id="Vector_5" d="M28.6986 54.2056C29.2601 54.2056 29.7154 53.7442 29.7154 53.175C29.7154 52.6059 29.2601 52.1445 28.6986 52.1445C28.1371 52.1445 27.6819 52.6059 27.6819 53.175C27.6819 53.7442 28.1371 54.2056 28.6986 54.2056Z" fill="white"/>
<path id="Vector_6" d="M25.6483 51.1138C26.2099 51.1138 26.6651 50.6524 26.6651 50.0833C26.6651 49.5141 26.2099 49.0527 25.6483 49.0527C25.0868 49.0527 24.6316 49.5141 24.6316 50.0833C24.6316 50.6524 25.0868 51.1138 25.6483 51.1138Z" fill="white"/>
<path id="Vector_7" fill-rule="evenodd" clip-rule="evenodd" d="M39.2645 5.51671C36.6119 4.77142 30.8243 3.5293 28.4127 3.5293C26.4835 3.5293 23.1074 4.27457 21.1782 4.77143C20.311 4.99476 18.0309 5.51923 15.5205 6.0967C12.4459 6.80395 9.02569 7.59068 7.43258 8.00099C4.53877 8.74626 3.81532 10.9821 3.57417 12.2242C3.38124 13.2179 3.65455 17.4412 3.81532 19.4286L5.02107 32.5952C5.34261 36.984 6.03391 46.1095 6.22683 47.5007C6.44108 49.0458 7.60712 49.8064 8.37194 50.3053C8.46796 50.3679 8.55765 50.4265 8.63837 50.4818C9.21713 50.8793 16.2748 54.1254 19.7313 55.6988C21.8212 56.6925 26.2906 58.7296 27.4481 58.9284C27.5696 58.9492 27.6792 58.9683 27.7788 58.9856C28.3146 59.0791 28.5594 59.1218 28.8026 59.1137C29.007 59.1069 29.2104 59.0642 29.5846 58.9856C29.6673 58.9683 29.7584 58.9492 29.8596 58.9284C30.7127 58.7526 33.0141 57.7064 34.7145 56.9335C35.4175 56.6139 36.0181 56.341 36.3708 56.1956C37.5765 55.6988 47.7048 50.9787 49.1517 49.985C50.5986 48.9913 51.0809 47.2523 51.3221 45.7617C51.4474 44.9872 51.7029 41.5971 51.9533 38.2745L51.9534 38.2732C52.1849 35.2017 52.412 32.1883 52.5279 31.353C52.769 29.614 53.4924 12.9695 53.4924 11.4789C53.4924 9.98837 51.5633 8.99464 50.5986 8.49782C49.9961 8.18741 46.7584 7.39229 43.7663 6.65749C41.9689 6.21606 40.26 5.7964 39.2645 5.51671ZM51.0809 25.6392H6.22682C6.55649 29.472 6.95906 35.2801 7.2579 39.5917C7.46912 42.6391 7.62853 44.939 7.67373 45.2649C7.71715 45.578 7.74493 45.8347 7.76834 46.051C7.87495 47.0361 7.89082 47.1828 8.87948 47.9976L14.6671 50.9786C17.9628 52.552 24.9884 55.8479 26.7247 56.4441C28.461 57.0403 30.0204 56.6925 30.5831 56.4441C36.2904 53.877 47.8495 48.5938 48.4283 47.9976C49.1517 47.2523 49.634 46.7555 49.634 45.5133C49.634 44.5196 50.5986 31.8499 51.0809 25.6392ZM13.0793 12.8807C13.3708 12.4418 13.7819 12.1184 14.3125 11.9105L14.4919 19.7987H16.1063L19.223 11.1945H18.4382L16.0839 18.2627L15.983 11.1598C15.7886 11.1445 15.6391 11.1367 15.5346 11.1367C14.9216 11.1367 14.3088 11.283 13.6959 11.5756C13.083 11.8605 12.5785 12.2378 12.1824 12.7074C11.7937 13.1694 11.5994 13.6468 11.5994 14.1395C11.5994 14.54 11.6966 14.8287 11.8909 15.0058C12.0927 15.1752 12.3954 15.2598 12.799 15.2598C12.799 15.2445 12.7729 15.1829 12.7206 15.075C12.6682 14.9596 12.6421 14.7594 12.6421 14.4745C12.6421 13.8431 12.7878 13.3119 13.0793 12.8807ZM19.6741 13.1348C19.846 13.3119 20.0553 13.4004 20.3019 13.4004C20.5485 13.4004 20.7578 13.3119 20.9298 13.1348C21.1091 12.9577 21.1988 12.7421 21.1988 12.488C21.1988 12.2339 21.1091 12.0183 20.9298 11.8412C20.7578 11.6564 20.5485 11.564 20.3019 11.564C20.0553 11.564 19.846 11.6564 19.6741 11.8412C19.5022 12.0183 19.4163 12.2339 19.4163 12.488C19.4163 12.7421 19.5022 12.9577 19.6741 13.1348ZM18.6651 19.5216C18.8893 19.7525 19.1808 19.868 19.5396 19.868C19.9656 19.868 20.3953 19.7218 20.8289 19.4292C20.9306 19.3587 21.028 19.2736 21.1211 19.1738L20.9925 19.7987H22.6069L23.3693 16.0914C23.459 15.7758 23.5786 15.5217 23.7281 15.3291C23.8775 15.129 24.0494 15.0289 24.2438 15.0289C24.5128 15.0289 24.6474 15.2252 24.6474 15.6179C24.6474 15.7796 24.6212 15.9913 24.5689 16.2531C24.5165 16.5149 24.4605 16.7806 24.4007 17.05C24.3858 17.1039 24.3559 17.2271 24.311 17.4196C24.2736 17.6121 24.2363 17.8123 24.1989 18.0201C24.1615 18.2204 24.1429 18.4013 24.1429 18.563C24.1429 18.9325 24.2475 19.2444 24.4568 19.4985C24.6735 19.7449 25.0098 19.868 25.4658 19.868C25.8544 19.868 26.2282 19.7256 26.5869 19.4407C26.742 19.3169 26.889 19.1432 27.028 18.9199C27.0771 19.1699 27.1725 19.3705 27.3143 19.5216C27.5385 19.7525 27.83 19.868 28.1888 19.868C28.6148 19.868 29.0446 19.7218 29.4781 19.4292C29.6785 19.2903 29.8622 19.0946 30.0291 18.8421C30.1002 19.0761 30.2065 19.2679 30.3481 19.4176C30.6321 19.7179 30.9871 19.868 31.4131 19.868C31.7793 19.868 32.0932 19.7718 32.3548 19.5793C32.6239 19.3792 32.8668 19.1212 33.0836 18.8055C33.121 19.152 33.2331 19.4176 33.4199 19.6024C33.6143 19.7795 33.8684 19.868 34.1823 19.868C34.5933 19.868 35.0007 19.7218 35.4043 19.4292C35.5941 19.2906 35.7696 19.0953 35.9307 18.8433C36.0017 19.0768 36.1079 19.2681 36.2493 19.4176C36.5332 19.7179 36.8883 19.868 37.3143 19.868C37.83 19.868 38.2785 19.6563 38.6597 19.2328L38.5251 19.8449C37.9945 20.0221 37.5572 20.2415 37.2134 20.5033C36.8696 20.7728 36.6977 21.1269 36.6977 21.5658C36.6977 21.9277 36.8173 22.2049 37.0565 22.3974C37.2956 22.5899 37.5946 22.6861 37.9534 22.6861C38.4167 22.6861 38.8315 22.5437 39.1978 22.2588C39.564 21.9816 39.8219 21.4696 39.9714 20.7227L40.1395 19.8911C40.573 19.7756 40.9617 19.5601 41.3055 19.2444C41.4164 19.1401 41.5199 19.017 41.616 18.875C41.6926 19.0987 41.8052 19.2834 41.9539 19.4292C42.2603 19.7218 42.6863 19.868 43.232 19.868C44.3232 19.868 44.9697 19.2983 45.1715 18.1587C44.9772 18.3358 44.7604 18.4821 44.5213 18.5976C44.2821 18.7131 44.0578 18.7708 43.8486 18.7708C43.3852 18.7708 43.1535 18.4513 43.1535 17.8123C43.1535 17.7507 43.161 17.6352 43.1759 17.4658C43.6244 17.435 44.0466 17.3118 44.4428 17.0962C44.8389 16.8729 45.1565 16.5803 45.3957 16.2184C45.6349 15.8566 45.7545 15.4601 45.7545 15.0289C45.7545 14.2897 45.3434 13.9201 44.5213 13.9201C43.8187 13.9201 43.2394 14.155 42.7835 14.6246C42.3276 15.0866 41.9988 15.6372 41.797 16.2762C41.5951 16.9153 41.4943 17.5004 41.4943 18.0317C41.4943 18.0775 41.495 18.1225 41.4966 18.1665C41.381 18.4416 41.25 18.6623 41.1037 18.8286C40.8869 19.075 40.5992 19.2598 40.2404 19.383L41.3504 14.0241H39.7359L39.6126 14.6246V14.5553C39.6126 14.3783 39.5378 14.2358 39.3884 14.128C39.2389 14.0203 39.0109 13.9663 38.7045 13.9663C38.0991 13.9663 37.5759 14.1857 37.135 14.6246C36.7014 15.0558 36.3726 15.5871 36.1484 16.2184C35.9316 16.8421 35.8232 17.4389 35.8232 18.0086C35.8232 18.0487 35.8238 18.0883 35.8249 18.1271C35.7586 18.2759 35.6819 18.4058 35.5949 18.5168C35.4454 18.717 35.266 18.817 35.0567 18.817C34.7503 18.817 34.5971 18.6516 34.5971 18.3204C34.5971 18.1896 34.6121 18.0663 34.6419 17.9508L35.4491 14.0241H33.8347L33.7114 14.6362V14.5553C33.7114 14.3783 33.6367 14.2358 33.4872 14.128C33.3377 14.0203 33.1098 13.9663 32.8033 13.9663C32.1979 13.9663 31.6747 14.1857 31.2337 14.6246C30.8003 15.0558 30.4714 15.5871 30.2472 16.2184C30.0304 16.8421 29.922 17.4389 29.922 18.0086C29.922 18.0449 29.9225 18.0806 29.9234 18.1158C29.8534 18.2494 29.7685 18.3677 29.6687 18.4706C29.4818 18.6554 29.28 18.7477 29.0633 18.7477C28.8988 18.7477 28.7792 18.717 28.7045 18.6554C28.6372 18.5861 28.6036 18.4744 28.6036 18.3204C28.6036 18.1896 28.6186 18.0663 28.6484 17.9508L29.366 14.486H30.0386L30.1283 14.0241H29.4556L29.8368 12.1993L28.1776 12.4302L27.8412 14.0241H27.4713L27.3816 14.486H27.7515L27.0789 17.7314C27.0784 17.7336 27.078 17.7359 27.0776 17.7381C26.9439 18.0813 26.8103 18.3369 26.6766 18.5052C26.5421 18.6669 26.3627 18.7477 26.1385 18.7477C25.974 18.7477 25.8582 18.7054 25.7909 18.6207C25.7236 18.5361 25.69 18.4167 25.69 18.2627C25.69 18.1318 25.7124 17.9547 25.7573 17.7314C25.8096 17.5004 25.8656 17.2656 25.9254 17.0269C26.0226 16.6342 26.0973 16.3032 26.1497 16.0336C26.202 15.7565 26.2281 15.5062 26.2281 15.2829C26.2281 14.8441 26.116 14.5169 25.8918 14.3012C25.6676 14.0857 25.3649 13.9779 24.9837 13.9779C24.4829 13.9779 24.0457 14.1935 23.672 14.6246L23.7953 14.0241H22.1809L21.4055 17.792C21.3223 18.065 21.1935 18.2912 21.0194 18.4706C20.8326 18.6554 20.6307 18.7477 20.414 18.7477C20.2496 18.7477 20.13 18.717 20.0553 18.6554C19.988 18.5861 19.9544 18.4744 19.9544 18.3204C19.9544 18.1896 19.9693 18.0663 19.9992 17.9508L20.8064 14.0241H19.192L18.4297 17.7314C18.3699 18.0394 18.34 18.2896 18.34 18.4821C18.34 18.9441 18.4483 19.2906 18.6651 19.5216ZM32.6912 18.4821C32.5118 18.6592 32.3287 18.7477 32.1418 18.7477C31.9849 18.7477 31.8503 18.6939 31.7382 18.5861C31.6336 18.4783 31.5813 18.2319 31.5813 17.8469C31.5813 17.462 31.6485 17.0192 31.7831 16.5187C31.9176 16.0105 32.1044 15.5794 32.3436 15.2252C32.5828 14.8634 32.8519 14.6824 33.1508 14.6824C33.3078 14.6824 33.4237 14.7324 33.4984 14.8325C33.5731 14.9249 33.6105 15.0212 33.6105 15.1212L33.0724 17.7314C33.0051 18.0471 32.878 18.2973 32.6912 18.4821ZM38.57 18.5052C38.3906 18.6669 38.2149 18.7477 38.0431 18.7477C37.8861 18.7477 37.7516 18.6939 37.6395 18.5861C37.5348 18.4783 37.4825 18.2319 37.4825 17.8469C37.4825 17.462 37.5498 17.0192 37.6843 16.5187C37.8188 16.0105 38.0057 15.5794 38.2449 15.2252C38.484 14.8634 38.7531 14.6824 39.0521 14.6824C39.209 14.6824 39.3248 14.7324 39.3996 14.8325C39.4743 14.9249 39.5117 15.0173 39.5117 15.1097L38.94 17.8469C38.8727 18.1241 38.7494 18.3435 38.57 18.5052ZM38.0655 21.5196C37.9459 21.6967 37.8225 21.7852 37.6955 21.7852C37.5759 21.7852 37.4825 21.7468 37.4152 21.6697C37.348 21.5928 37.3143 21.5042 37.3143 21.4041C37.3143 21.0268 37.6805 20.6996 38.413 20.4224L38.3458 20.7573C38.2785 21.0885 38.185 21.3426 38.0655 21.5196ZM44.0504 16.6227C43.8037 16.8075 43.5384 16.9037 43.2544 16.9114C43.3814 16.3032 43.572 15.7565 43.8262 15.2714C44.0877 14.7786 44.3493 14.5322 44.611 14.5322C44.7978 14.5322 44.8912 14.6901 44.8912 15.0058C44.8912 15.3215 44.8128 15.6256 44.6558 15.9182C44.5063 16.2031 44.3045 16.4379 44.0504 16.6227Z" fill="white"/>
<path id="Vector_8" d="M16.0046 31.7991C16.1589 31.7991 16.2934 31.78 16.4081 31.742C16.5228 31.7018 16.6177 31.6458 16.6928 31.574C16.7699 31.5 16.8273 31.4112 16.8648 31.3076C16.9024 31.202 16.9211 31.0847 16.9211 30.9557C16.9211 30.8331 16.9024 30.7222 16.8648 30.6228C16.8273 30.5235 16.771 30.4389 16.6959 30.3692C16.6208 30.2994 16.5259 30.2466 16.4113 30.2107C16.2966 30.1726 16.161 30.1536 16.0046 30.1536H15.3759V31.7991H16.0046ZM16.0046 29.4941C16.307 29.4941 16.5687 29.5301 16.7897 29.6019C17.0108 29.6738 17.1933 29.7742 17.3372 29.9031C17.481 30.0321 17.5874 30.1864 17.6562 30.366C17.7271 30.5457 17.7626 30.7422 17.7626 30.9557C17.7626 31.1777 17.7261 31.3816 17.6531 31.5676C17.5801 31.7515 17.4706 31.91 17.3246 32.0432C17.1787 32.1763 16.9952 32.2799 16.7741 32.3539C16.5551 32.4279 16.2986 32.4649 16.0046 32.4649H15.3759V34.0786H14.5344V29.4941H16.0046ZM19.5245 31.6754C19.683 31.6754 19.8206 31.6553 19.9374 31.6152C20.0563 31.575 20.1532 31.5201 20.2283 31.4503C20.3055 31.3784 20.3628 31.2939 20.4003 31.1967C20.4379 31.0994 20.4567 30.9927 20.4567 30.8765C20.4567 30.644 20.3805 30.4654 20.2283 30.3407C20.0782 30.2159 19.8477 30.1536 19.537 30.1536H18.999V31.6754H19.5245ZM21.6891 34.0786H20.929C20.7851 34.0786 20.6808 34.0215 20.6162 33.9074L19.6653 32.4395C19.6298 32.3845 19.5902 32.3454 19.5464 32.3222C19.5047 32.2989 19.4421 32.2873 19.3587 32.2873H18.999V34.0786H18.1575V29.4941H19.537C19.8436 29.4941 20.1063 29.5269 20.3253 29.5924C20.5463 29.6558 20.7267 29.7457 20.8664 29.8619C21.0082 29.9782 21.1125 30.1177 21.1792 30.2804C21.246 30.4411 21.2793 30.6186 21.2793 30.813C21.2793 30.9673 21.2564 31.1132 21.2105 31.2506C21.1667 31.388 21.1021 31.5127 21.0166 31.6247C20.9332 31.7367 20.8289 31.835 20.7038 31.9195C20.5807 32.0041 20.44 32.0707 20.2815 32.1193C20.3357 32.151 20.3858 32.189 20.4316 32.2334C20.4775 32.2757 20.5192 32.3264 20.5568 32.3856L21.6891 34.0786ZM22.7719 30.1726V31.444H24.3547V32.1003H22.7719V33.397H24.7801V34.0786H21.9273V29.4941H24.7801V30.1726H22.7719ZM30.1804 29.4941V34.0786H29.439V31.1174C29.439 30.9991 29.4453 30.8712 29.4578 30.7338L28.0908 33.3367C28.0262 33.4614 27.9271 33.5238 27.7937 33.5238H27.6748C27.5413 33.5238 27.4423 33.4614 27.3776 33.3367L25.995 30.7243C26.0013 30.794 26.0065 30.8627 26.0107 30.9304C26.0148 30.998 26.0169 31.0603 26.0169 31.1174V34.0786H25.2756V29.4941H25.9106C25.9481 29.4941 25.9804 29.4952 26.0075 29.4973C26.0347 29.4994 26.0586 29.5047 26.0795 29.5132C26.1024 29.5216 26.1222 29.5354 26.1389 29.5544C26.1577 29.5734 26.1754 29.5988 26.1921 29.6305L27.5465 32.1763C27.582 32.244 27.6143 32.3137 27.6435 32.3856C27.6748 32.4575 27.705 32.5314 27.7342 32.6075C27.7634 32.5293 27.7937 32.4543 27.8249 32.3824C27.8562 32.3084 27.8896 32.2376 27.925 32.17L29.2607 29.6305C29.2774 29.5988 29.2951 29.5734 29.3139 29.5544C29.3327 29.5354 29.3525 29.5216 29.3733 29.5132C29.3963 29.5047 29.4213 29.4994 29.4484 29.4973C29.4755 29.4952 29.5078 29.4941 29.5454 29.4941H30.1804ZM31.7839 34.0786H30.9393V29.4941H31.7839V34.0786ZM34.3669 33.3906C34.5295 33.3906 34.6745 33.3631 34.8017 33.3082C34.931 33.2532 35.0394 33.1761 35.127 33.0768C35.2146 32.9774 35.2813 32.8569 35.3272 32.7153C35.3751 32.5737 35.3991 32.4152 35.3991 32.2398V29.4941H36.2406V32.2398C36.2406 32.5124 36.1968 32.765 36.1092 32.9975C36.0237 33.2279 35.8996 33.4276 35.737 33.5967C35.5764 33.7637 35.3804 33.8947 35.1489 33.9898C34.9174 34.0828 34.6567 34.1293 34.3669 34.1293C34.0749 34.1293 33.8132 34.0828 33.5817 33.9898C33.3503 33.8947 33.1532 33.7637 32.9905 33.5967C32.83 33.4276 32.7059 33.2279 32.6183 32.9975C32.5328 32.765 32.49 32.5124 32.49 32.2398V29.4941H33.3315V32.2366C33.3315 32.412 33.3544 32.5705 33.4003 32.7122C33.4483 32.8538 33.516 32.9753 33.6036 33.0768C33.6933 33.1761 33.8017 33.2532 33.9289 33.3082C34.0582 33.3631 34.2042 33.3906 34.3669 33.3906ZM41.8441 29.4941V34.0786H41.1027V31.1174C41.1027 30.9991 41.109 30.8712 41.1215 30.7338L39.7546 33.3367C39.6899 33.4614 39.5909 33.5238 39.4574 33.5238H39.3385C39.2051 33.5238 39.106 33.4614 39.0414 33.3367L37.6588 30.7243C37.665 30.794 37.6702 30.8627 37.6744 30.9304C37.6786 30.998 37.6807 31.0603 37.6807 31.1174V34.0786H36.9393V29.4941H37.5743C37.6118 29.4941 37.6442 29.4952 37.6713 29.4973C37.6984 29.4994 37.7224 29.5047 37.7432 29.5132C37.7662 29.5216 37.786 29.5354 37.8027 29.5544C37.8214 29.5734 37.8391 29.5988 37.8558 29.6305L39.2103 32.1763C39.2457 32.244 39.278 32.3137 39.3072 32.3856C39.3385 32.4575 39.3688 32.5314 39.398 32.6075C39.4272 32.5293 39.4574 32.4543 39.4887 32.3824C39.52 32.3084 39.5533 32.2376 39.5888 32.17L40.9244 29.6305C40.9411 29.5988 40.9589 29.5734 40.9776 29.5544C40.9964 29.5354 41.0162 29.5216 41.0371 29.5132C41.06 29.5047 41.085 29.4994 41.1121 29.4973C41.1392 29.4952 41.1716 29.4941 41.2091 29.4941H41.8441ZM16.6164 38.8318C16.6164 39.0834 16.6497 39.3095 16.7165 39.5103C16.7832 39.709 16.8781 39.8781 17.0011 40.0176C17.1263 40.155 17.2764 40.2606 17.4516 40.3346C17.6288 40.4086 17.828 40.4456 18.049 40.4456C18.2701 40.4456 18.4682 40.4086 18.6434 40.3346C18.8206 40.2606 18.9708 40.155 19.0938 40.0176C19.2168 39.8781 19.3117 39.709 19.3785 39.5103C19.4452 39.3095 19.4785 39.0834 19.4785 38.8318C19.4785 38.5803 19.4452 38.3552 19.3785 38.1565C19.3117 37.9557 19.2168 37.7856 19.0938 37.6461C18.9708 37.5066 18.8206 37.3998 18.6434 37.3259C18.4682 37.2519 18.2701 37.2149 18.049 37.2149C17.828 37.2149 17.6288 37.2519 17.4516 37.3259C17.2764 37.3998 17.1263 37.5066 17.0011 37.6461C16.8781 37.7856 16.7832 37.9557 16.7165 38.1565C16.6497 38.3552 16.6164 38.5803 16.6164 38.8318ZM20.5734 42.0213H19.8789C19.7788 42.0213 19.6881 42.0076 19.6068 41.9801C19.5276 41.9526 19.4546 41.9019 19.3878 41.8279L18.7247 41.086C18.6183 41.1156 18.5089 41.1378 18.3962 41.1526C18.2857 41.1674 18.17 41.1748 18.049 41.1748C17.707 41.1748 17.3953 41.1167 17.1137 41.0004C16.8322 40.8821 16.5903 40.7183 16.388 40.509C16.1878 40.2998 16.0325 40.0525 15.922 39.7671C15.8114 39.4797 15.7562 39.1679 15.7562 38.8318C15.7562 38.4958 15.8114 38.1851 15.922 37.8997C16.0325 37.6123 16.1878 37.3639 16.388 37.1547C16.5903 36.9454 16.8322 36.7827 17.1137 36.6664C17.3953 36.548 17.707 36.4889 18.049 36.4889C18.2784 36.4889 18.4943 36.5163 18.6965 36.5713C18.8988 36.6241 19.0844 36.7002 19.2533 36.7996C19.4222 36.8968 19.5734 37.0162 19.7069 37.1578C19.8424 37.2973 19.9571 37.4537 20.051 37.6271C20.1448 37.8004 20.2157 37.9885 20.2637 38.1914C20.3137 38.3943 20.3388 38.6078 20.3388 38.8318C20.3388 39.0369 20.3179 39.2334 20.2762 39.4215C20.2345 39.6075 20.174 39.7819 20.0948 39.9447C20.0176 40.1074 19.9227 40.2575 19.8101 40.3949C19.6975 40.5301 19.5693 40.6496 19.4254 40.7531L20.5734 42.0213ZM22.6449 40.4361C22.8076 40.4361 22.9525 40.4086 23.0797 40.3536C23.209 40.2987 23.3174 40.2215 23.405 40.1222C23.4926 40.0229 23.5593 39.9024 23.6052 39.7608C23.6532 39.6192 23.6772 39.4606 23.6772 39.2852V36.5396H24.5186V39.2852C24.5186 39.5579 24.4748 39.8104 24.3872 40.0429C24.3017 40.2733 24.1776 40.4731 24.015 40.6422C23.8544 40.8091 23.6584 40.9402 23.4269 41.0353C23.1954 41.1283 22.9348 41.1748 22.6449 41.1748C22.3529 41.1748 22.0912 41.1283 21.8598 41.0353C21.6283 40.9402 21.4312 40.8091 21.2686 40.6422C21.108 40.4731 20.9839 40.2733 20.8963 40.0429C20.8108 39.8104 20.7681 39.5579 20.7681 39.2852V36.5396H21.6095V39.282C21.6095 39.4575 21.6325 39.616 21.6783 39.7576C21.7263 39.8992 21.7941 40.0208 21.8817 40.1222C21.9713 40.2215 22.0798 40.2987 22.207 40.3536C22.3363 40.4086 22.4822 40.4361 22.6449 40.4361ZM27.4971 39.393L26.9466 37.868C26.9195 37.8004 26.8913 37.7201 26.8621 37.6271C26.8329 37.5341 26.8037 37.4337 26.7745 37.3259C26.7474 37.4337 26.7193 37.5351 26.6901 37.6302C26.6609 37.7232 26.6327 37.8046 26.6056 37.8744L26.0582 39.393H27.4971ZM28.9829 41.1241H28.3323C28.2593 41.1241 28.1999 41.1061 28.154 41.0702C28.1081 41.0321 28.0737 40.9856 28.0508 40.9307L27.713 39.9954H25.8393L25.5014 40.9307C25.4847 40.9793 25.4524 41.0237 25.4045 41.0638C25.3565 41.104 25.2971 41.1241 25.2262 41.1241H24.5693L26.3491 36.5396H27.2062L28.9829 41.1241ZM31.8504 40.4202V41.1241H29.2009V36.5396H30.0424V40.4202H31.8504ZM33.0455 41.1241H32.2009V36.5396H33.0455V41.1241ZM36.9673 37.2403H35.6034V41.1241H34.762V37.2403H33.3982V36.5396H36.9673V37.2403ZM39.2514 39.3486V41.1241H38.4131V39.3486L36.7646 36.5396H37.506C37.579 36.5396 37.6363 36.5576 37.678 36.5935C37.7218 36.6294 37.7583 36.6749 37.7875 36.7298L38.6133 38.2612C38.6613 38.352 38.703 38.4376 38.7384 38.518C38.776 38.5983 38.8093 38.6786 38.8385 38.7589C38.8656 38.6786 38.8969 38.5983 38.9324 38.518C38.9678 38.4376 39.0085 38.352 39.0544 38.2612L39.877 36.7298C39.9 36.6833 39.9344 36.64 39.9803 36.5998C40.0261 36.5597 40.0845 36.5396 40.1554 36.5396H40.8999L39.2514 39.3486Z" fill="white"/>
</g>
<defs>
<clipPath id="clip0_15_59">
<rect width="57" height="62" fill="white"/>
</clipPath>
</defs>
</svg>
