<svg width="140" height="71" viewBox="0 0 140 71" fill="none" xmlns="http://www.w3.org/2000/svg">
<path d="M3.61914 41.0916H7.58523V60.4296H3.61914V41.0916Z" fill="white"/>
<path d="M9.88557 53.8039C9.88295 52.415 10.2948 51.0564 11.0689 49.9002C11.843 48.744 12.9447 47.8422 14.2344 47.3088C15.5241 46.7755 16.944 46.6346 18.3143 46.904C19.6846 47.1734 20.9438 47.8409 21.9323 48.8222C22.921 49.8034 23.5947 51.0543 23.8681 52.4164C24.1417 53.7785 24.0027 55.1907 23.4687 56.4742C22.9347 57.7577 22.0299 58.8548 20.8686 59.6268C19.7075 60.3989 18.342 60.8108 16.9453 60.8108C16.0162 60.8214 15.0946 60.6475 14.2342 60.2992C13.3737 59.951 12.5919 59.4355 11.9344 58.7828C11.2769 58.1303 10.757 57.3538 10.4052 56.4987C10.0534 55.6438 9.87671 54.7276 9.88557 53.8039ZM20.0122 53.8039C19.9967 53.2043 19.8036 52.6226 19.4573 52.1315C19.1109 51.6404 18.6267 51.2619 18.065 51.043C17.5033 50.8242 16.8893 50.775 16.2997 50.9014C15.71 51.0278 15.171 51.3244 14.7499 51.7538C14.3289 52.1833 14.0446 52.7268 13.9325 53.3163C13.8204 53.9056 13.8857 54.5148 14.1199 55.0675C14.3543 55.6201 14.7473 56.0919 15.2497 56.4237C15.7523 56.7554 16.342 56.9325 16.9453 56.9327C17.3578 56.9442 17.7685 56.8706 18.1511 56.7163C18.5337 56.5621 18.8801 56.3307 19.1683 56.0367C19.4564 55.7427 19.6803 55.3925 19.8255 55.0083C19.9708 54.6239 20.0344 54.2139 20.0122 53.8039Z" fill="white"/>
<path d="M39.9483 47.1782V59.7723C39.9483 64.2288 36.445 66.1088 32.902 66.1088C31.6561 66.201 30.4087 65.9504 29.2964 65.3846C28.1841 64.8188 27.2499 63.9596 26.596 62.9011L30.0068 60.9424C30.2774 61.4848 30.7057 61.934 31.236 62.2316C31.7663 62.5293 32.3743 62.6618 32.9814 62.6118C33.3807 62.6781 33.79 62.6522 34.1778 62.5361C34.5656 62.4201 34.9214 62.2172 35.2177 61.9428C35.514 61.6684 35.743 61.3299 35.8871 60.9536C36.0311 60.5773 36.0863 60.1732 36.0484 59.7723V58.5497C35.5822 59.1202 34.9872 59.5733 34.3119 59.8725C33.6367 60.1717 32.9 60.3085 32.1617 60.2719C30.3665 60.2719 28.6449 59.5627 27.3754 58.3005C26.106 57.0382 25.3928 55.3261 25.3928 53.541C25.3928 51.7558 26.106 50.0439 27.3754 48.7816C28.6449 47.5193 30.3665 46.8102 32.1617 46.8102C32.8996 46.7766 33.6352 46.9149 34.31 47.2138C34.9848 47.5128 35.5801 47.9643 36.0484 48.5323V47.2176L39.9483 47.1782ZM36.0484 53.541C36.0748 52.9017 35.9082 52.2691 35.5703 51.7245C35.2322 51.18 34.7381 50.7484 34.1515 50.4855C33.5649 50.2223 32.9125 50.1398 32.2783 50.2484C31.6441 50.3568 31.0571 50.6515 30.5927 51.0944C30.1282 51.5374 29.8076 52.1083 29.6721 52.7338C29.5364 53.3593 29.5921 54.011 29.8319 54.6047C30.0718 55.1986 30.4846 55.7074 31.0176 56.0661C31.5506 56.4248 32.1792 56.6167 32.8226 56.6172C33.2428 56.6467 33.6643 56.5885 34.0602 56.4461C34.4563 56.3037 34.8179 56.0805 35.1218 55.7907C35.4256 55.5008 35.6652 55.1509 35.8248 54.7634C35.9844 54.376 36.0605 53.9596 36.0484 53.541Z" fill="white"/>
<path d="M42.2357 53.8039C42.233 52.415 42.6449 51.0564 43.419 49.9002C44.1932 48.744 45.2948 47.8422 46.5845 47.3088C47.8742 46.7755 49.2941 46.6346 50.6644 46.904C52.0347 47.1734 53.2939 47.8409 54.2825 48.8222C55.2711 49.8034 55.9448 51.0543 56.2183 52.4164C56.4917 53.7785 56.3527 55.1907 55.8188 56.4742C55.2848 57.7577 54.38 58.8548 53.2188 59.6268C52.0575 60.3989 50.6921 60.8108 49.2953 60.8108C48.3664 60.8214 47.4447 60.6475 46.5842 60.2992C45.7238 59.951 44.9419 59.4355 44.2844 58.7828C43.627 58.1303 43.107 57.3538 42.7552 56.4987C42.4034 55.6438 42.2267 54.7276 42.2357 53.8039ZM52.3624 53.8039C52.3468 53.2043 52.1537 52.6226 51.8073 52.1315C51.461 51.6404 50.9767 51.2619 50.415 51.043C49.8535 50.8242 49.2395 50.775 48.6498 50.9014C48.0601 51.0278 47.5211 51.3244 47.1 51.7538C46.679 52.1833 46.3947 52.7268 46.2825 53.3163C46.1705 53.9056 46.2358 54.5148 46.47 55.0675C46.7043 55.6201 47.0973 56.0919 47.5998 56.4237C48.1024 56.7554 48.6921 56.9325 49.2953 56.9327C49.7058 56.9405 50.1135 56.8642 50.493 56.7083C50.8724 56.5523 51.2156 56.3204 51.5009 56.0268C51.7862 55.7333 52.0075 55.3843 52.1513 55.0019C52.295 54.6195 52.3578 54.2116 52.336 53.8039H52.3624Z" fill="white"/>
<path d="M58.1926 43.6288C58.1926 43.1556 58.3337 42.693 58.5981 42.2996C58.8625 41.9061 59.2383 41.5995 59.6779 41.4183C60.1176 41.2372 60.6013 41.1899 61.0681 41.2822C61.5348 41.3745 61.9635 41.6024 62.3001 41.9369C62.6366 42.2716 62.8657 42.6979 62.9585 43.162C63.0515 43.6262 63.0037 44.1073 62.8217 44.5444C62.6396 44.9816 62.3312 45.3554 61.9355 45.6182C61.5397 45.881 61.0747 46.0214 60.5987 46.0214C59.9617 46.018 59.3517 45.7648 58.9012 45.3168C58.4506 44.8689 58.1961 44.2624 58.1926 43.6288ZM58.6024 47.1782H62.5685V60.4296H58.6024V47.1782Z" fill="white"/>
<path d="M79.8604 53.8039C79.9084 54.6799 79.7819 55.5567 79.4879 56.3837C79.1937 57.2108 78.7382 57.9719 78.1471 58.6232C77.556 59.2744 76.8413 59.803 76.044 60.1785C75.2467 60.5539 74.3826 60.7689 73.5015 60.8109C72.7617 60.8462 72.0231 60.7197 71.3379 60.4403C70.6526 60.1609 70.0373 59.7355 69.5354 59.1939V65.767H65.5693V47.1782H69.5354V48.4271C70.0373 47.8856 70.6526 47.4601 71.3379 47.1807C72.0231 46.9013 72.7617 46.7749 73.5015 46.8101C74.3815 46.8522 75.2445 47.0667 76.0408 47.4414C76.8372 47.8161 77.5514 48.3435 78.1422 48.9933C78.7331 49.6432 79.189 50.4026 79.4838 51.2282C79.7788 52.0537 79.9067 52.9291 79.8604 53.8039ZM75.8943 53.8039C75.8787 53.1869 75.6813 52.588 75.3266 52.0814C74.972 51.5749 74.4759 51.1828 73.8995 50.9539C73.3231 50.7249 72.6917 50.6691 72.0838 50.7934C71.4758 50.9176 70.9178 51.2165 70.4789 51.6529C70.04 52.0893 69.7395 52.6441 69.6145 53.2487C69.4896 53.8534 69.5458 54.4811 69.7759 55.0542C70.0062 55.6274 70.4005 56.1209 70.9099 56.4734C71.4194 56.826 72.0217 57.0223 72.6421 57.0379C73.0752 57.0653 73.509 57.0002 73.9147 56.847C74.3203 56.6938 74.6882 56.456 74.9939 56.1497C75.2993 55.8433 75.5355 55.4755 75.6863 55.0709C75.8369 54.6664 75.899 54.2344 75.8679 53.8039H75.8943Z" fill="white"/>
<path d="M92.2083 56.4595C92.2083 59.5094 89.5642 60.8108 86.6557 60.8108C85.4939 60.9131 84.3278 60.6673 83.3076 60.105C82.2876 59.5427 81.4599 58.6897 80.9314 57.6557L84.3951 55.697C84.5357 56.1752 84.8367 56.5912 85.2479 56.8757C85.6592 57.1603 86.1559 57.2964 86.6557 57.2613C87.6209 57.2613 88.0967 56.959 88.0967 56.4332C88.0967 54.9739 81.4866 55.7496 81.4866 51.1747C81.4866 48.2825 83.9456 46.8232 86.7747 46.8232C87.8187 46.7918 88.8522 47.0383 89.7681 47.5377C90.6839 48.0369 91.4488 48.7707 91.9836 49.6628L88.5067 51.4771C88.3531 51.1299 88.1014 50.8345 87.7822 50.6267C87.463 50.419 87.0901 50.3079 86.7086 50.307C86.0212 50.307 85.5982 50.5699 85.5982 51.0564C85.6511 52.5681 92.2083 51.5559 92.2083 56.4595Z" fill="white"/>
<path d="M106.803 47.1783V60.4296H102.837V59.194C102.376 59.743 101.79 60.1757 101.129 60.4568C100.467 60.7379 99.7476 60.8591 99.0297 60.8109C96.3856 60.8109 94.0457 58.9047 94.0457 55.3158V47.1783H98.0117V54.7374C97.9769 55.0595 98.0147 55.3853 98.1222 55.6912C98.2297 55.997 98.4043 56.2752 98.6335 56.5056C98.8625 56.736 99.1404 56.9126 99.4467 57.0229C99.753 57.1333 100.08 57.1742 100.405 57.1432C101.859 57.1432 102.877 56.3018 102.877 54.4219V47.1783H106.803Z" fill="white"/>
<path d="M129.727 52.3051V60.4295H125.761V52.6471C125.761 51.3324 125.113 50.4647 123.844 50.4647C122.575 50.4647 121.755 51.3982 121.755 52.9625V60.4295H117.789V52.6471C117.789 51.3324 117.155 50.4647 115.872 50.4647C114.59 50.4647 113.797 51.3982 113.797 52.9625V60.4295H109.831V47.1782H113.797V48.4008C114.211 47.8608 114.755 47.4325 115.378 47.1547C116.002 46.8768 116.685 46.7584 117.366 46.8102C118.05 46.777 118.731 46.9208 119.343 47.2271C119.955 47.5335 120.476 47.9922 120.857 48.5586C121.299 47.9665 121.885 47.4955 122.56 47.1898C123.235 46.8841 123.977 46.7534 124.717 46.8102C127.731 46.8102 129.727 48.9924 129.727 52.3051Z" fill="white"/>
<path d="M133.112 47.0995C134.747 47.0995 136.073 45.7809 136.073 44.1546C136.073 42.5283 134.747 41.2099 133.112 41.2099C131.476 41.2099 130.15 42.5283 130.15 44.1546C130.15 45.7809 131.476 47.0995 133.112 47.0995Z" fill="white"/>
<path d="M48.5019 31.0611C56.161 31.0611 62.3699 24.8869 62.3699 17.2707C62.3699 9.65451 56.161 3.48035 48.5019 3.48035C40.8428 3.48035 34.6338 9.65451 34.6338 17.2707C34.6338 24.8869 40.8428 31.0611 48.5019 31.0611Z" fill="white"/>
<path d="M79.5034 31.0611C87.1625 31.0611 93.3714 24.8869 93.3714 17.2707C93.3714 9.65451 87.1625 3.48035 79.5034 3.48035C71.8443 3.48035 65.6353 9.65451 65.6353 17.2707C65.6353 24.8869 71.8443 31.0611 79.5034 31.0611Z" fill="white"/>
<path d="M31.3686 3.48035H3.64575V31.0479H31.3686V3.48035Z" fill="white"/>
</svg>
